<mxfile host="Electron" modified="2024-06-04T14:10:40.259Z" agent="Mozilla/5.0 (Macintosh; Intel Mac OS X 10_15_7) AppleWebKit/537.36 (KHTML, like Gecko) draw.io/24.2.5 Chrome/120.0.6099.109 Electron/28.1.0 Safari/537.36" etag="O8s9Z2LR_NsoCyL0ejVQ" version="24.2.5" type="device">
  <diagram name="Onboarding" id="t2MzZW9pGKtbB2Ooh3lP">
    <mxGraphModel dx="2246" dy="1268" grid="0" gridSize="10" guides="0" tooltips="1" connect="1" arrows="1" fold="1" page="0" pageScale="1" pageWidth="850" pageHeight="1100" math="0" shadow="0">
      <root>
        <mxCell id="NcAq1nEZuETaazXwx4-U-0" />
        <mxCell id="NcAq1nEZuETaazXwx4-U-1" parent="NcAq1nEZuETaazXwx4-U-0" />
        <mxCell id="NcAq1nEZuETaazXwx4-U-2" value="" style="rounded=0;whiteSpace=wrap;html=1;shadow=1;sketch=1;jiggle=2;curveFitting=1;align=center;verticalAlign=middle;fontFamily=Gloria Hallelujah;fontSize=13;fontSource=https%3A%2F%2Ffonts.googleapis.com%2Fcss%3Ffamily%3DGloria%2BHallelujah;" parent="NcAq1nEZuETaazXwx4-U-1" vertex="1">
          <mxGeometry x="229" y="202" width="600" height="582" as="geometry" />
        </mxCell>
        <mxCell id="T-xyQ6KzFTJhyV4k8-1Z-2" value="Cloud Configuration Collection&lt;div style=&quot;font-size: 13px;&quot;&gt;(CSPM)&lt;/div&gt;" style="edgeStyle=orthogonalEdgeStyle;curved=1;rounded=0;hachureGap=4;orthogonalLoop=1;jettySize=auto;html=1;exitX=0.75;exitY=0;exitDx=0;exitDy=0;entryX=0;entryY=0.75;entryDx=0;entryDy=0;strokeColor=#FF00FF;strokeWidth=2;align=center;verticalAlign=middle;fontFamily=Architects Daughter;fontSource=https%3A%2F%2Ffonts.googleapis.com%2Fcss%3Ffamily%3DArchitects%2BDaughter;fontSize=13;fontColor=default;labelBackgroundColor=default;endArrow=classic;flowAnimation=1;dashed=1;dashPattern=1 2;" parent="NcAq1nEZuETaazXwx4-U-1" source="NcAq1nEZuETaazXwx4-U-3" target="ljjwXp4fXD9O23kHXZ_o-2" edge="1">
          <mxGeometry x="-0.0196" y="-58" relative="1" as="geometry">
            <mxPoint as="offset" />
            <mxPoint x="234" y="238.25" as="targetPoint" />
          </mxGeometry>
        </mxCell>
        <mxCell id="T-xyQ6KzFTJhyV4k8-1Z-4" value="Audit Log&amp;nbsp;&lt;div&gt;Collection &amp;amp; Analysis&lt;/div&gt;" style="edgeStyle=orthogonalEdgeStyle;curved=1;rounded=0;hachureGap=4;orthogonalLoop=1;jettySize=auto;html=1;exitX=0.5;exitY=0;exitDx=0;exitDy=0;entryX=0;entryY=0.25;entryDx=0;entryDy=0;strokeColor=#FF00FF;strokeWidth=2;align=center;verticalAlign=middle;fontFamily=Architects Daughter;fontSource=https%3A%2F%2Ffonts.googleapis.com%2Fcss%3Ffamily%3DArchitects%2BDaughter;fontSize=13;fontColor=default;labelBackgroundColor=default;endArrow=classic;flowAnimation=1;dashed=1;dashPattern=1 2;" parent="NcAq1nEZuETaazXwx4-U-1" source="NcAq1nEZuETaazXwx4-U-3" target="ljjwXp4fXD9O23kHXZ_o-2" edge="1">
          <mxGeometry x="-0.0754" y="-27" relative="1" as="geometry">
            <mxPoint as="offset" />
            <mxPoint x="234" y="214.75" as="targetPoint" />
          </mxGeometry>
        </mxCell>
        <mxCell id="NcAq1nEZuETaazXwx4-U-3" value="Prisma&lt;div style=&quot;font-size: 13px;&quot;&gt;Cloud&lt;br&gt;(SaaS)&lt;/div&gt;" style="rounded=1;whiteSpace=wrap;html=1;sketch=1;curveFitting=1;jiggle=2;fontFamily=Gloria Hallelujah;fontSize=13;shadow=1;fontSource=https%3A%2F%2Ffonts.googleapis.com%2Fcss%3Ffamily%3DGloria%2BHallelujah;" parent="NcAq1nEZuETaazXwx4-U-1" vertex="1">
          <mxGeometry x="-236" y="341" width="230" height="78" as="geometry" />
        </mxCell>
        <mxCell id="P75K7gAuZfAj4uCHvaLu-8" style="edgeStyle=orthogonalEdgeStyle;curved=1;rounded=0;hachureGap=4;orthogonalLoop=1;jettySize=auto;html=1;exitX=0.25;exitY=0;exitDx=0;exitDy=0;entryX=0.25;entryY=0;entryDx=0;entryDy=0;strokeColor=#00CC00;strokeWidth=2;align=center;verticalAlign=middle;fontFamily=Architects Daughter;fontSource=https%3A%2F%2Ffonts.googleapis.com%2Fcss%3Ffamily%3DArchitects%2BDaughter;fontSize=13;fontColor=default;labelBackgroundColor=default;endArrow=classic;flowAnimation=1;" parent="NcAq1nEZuETaazXwx4-U-1" target="NcAq1nEZuETaazXwx4-U-3" edge="1">
          <mxGeometry relative="1" as="geometry">
            <mxPoint x="245.75" y="203" as="sourcePoint" />
          </mxGeometry>
        </mxCell>
        <mxCell id="NcAq1nEZuETaazXwx4-U-6" style="edgeStyle=orthogonalEdgeStyle;curved=1;rounded=0;orthogonalLoop=1;jettySize=auto;html=1;exitX=0;exitY=0.5;exitDx=0;exitDy=0;sketch=1;curveFitting=1;jiggle=2;fontFamily=Gloria Hallelujah;fontSource=https%3A%2F%2Ffonts.googleapis.com%2Fcss%3Ffamily%3DGloria%2BHallelujah;fontSize=13;entryX=1;entryY=0.5;entryDx=0;entryDy=0;" parent="NcAq1nEZuETaazXwx4-U-1" source="NcAq1nEZuETaazXwx4-U-8" target="NcAq1nEZuETaazXwx4-U-13" edge="1">
          <mxGeometry relative="1" as="geometry">
            <mxPoint x="455" y="491" as="targetPoint" />
          </mxGeometry>
        </mxCell>
        <mxCell id="NcAq1nEZuETaazXwx4-U-7" value="Network Flow logs" style="edgeStyle=orthogonalEdgeStyle;curved=1;rounded=0;orthogonalLoop=1;jettySize=auto;html=1;exitX=0.25;exitY=1;exitDx=0;exitDy=0;strokeColor=default;align=center;verticalAlign=middle;fontFamily=Gloria Hallelujah;fontSize=13;fontColor=default;labelBackgroundColor=default;endArrow=classic;flowAnimation=1;dashed=1;strokeWidth=2;fontSource=https%3A%2F%2Ffonts.googleapis.com%2Fcss%3Ffamily%3DGloria%2BHallelujah;entryX=1;entryY=0.5;entryDx=0;entryDy=0;" parent="NcAq1nEZuETaazXwx4-U-1" source="NcAq1nEZuETaazXwx4-U-8" target="ljjwXp4fXD9O23kHXZ_o-8" edge="1">
          <mxGeometry x="-0.0803" y="-28" relative="1" as="geometry">
            <mxPoint as="offset" />
            <mxPoint x="360.52" y="679.98" as="targetPoint" />
            <Array as="points" />
          </mxGeometry>
        </mxCell>
        <mxCell id="NcAq1nEZuETaazXwx4-U-8" value="" style="rounded=1;whiteSpace=wrap;html=1;fillColor=#f5f5f5;fontColor=#333333;strokeColor=#666666;sketch=1;curveFitting=1;jiggle=2;fontFamily=Gloria Hallelujah;fontSource=https%3A%2F%2Ffonts.googleapis.com%2Fcss%3Ffamily%3DGloria%2BHallelujah;fontSize=13;" parent="NcAq1nEZuETaazXwx4-U-1" vertex="1">
          <mxGeometry x="501" y="510" width="210" height="90" as="geometry" />
        </mxCell>
        <mxCell id="NcAq1nEZuETaazXwx4-U-12" style="edgeStyle=orthogonalEdgeStyle;curved=1;rounded=0;orthogonalLoop=1;jettySize=auto;html=1;exitX=0;exitY=0.5;exitDx=0;exitDy=0;sketch=1;curveFitting=1;jiggle=2;fontFamily=Gloria Hallelujah;entryX=0.98;entryY=0.325;entryDx=0;entryDy=0;entryPerimeter=0;fontSource=https%3A%2F%2Ffonts.googleapis.com%2Fcss%3Ffamily%3DGloria%2BHallelujah;fontSize=13;" parent="NcAq1nEZuETaazXwx4-U-1" target="NcAq1nEZuETaazXwx4-U-13" edge="1">
          <mxGeometry relative="1" as="geometry">
            <mxPoint x="501" y="438" as="sourcePoint" />
            <mxPoint x="455" y="481.5" as="targetPoint" />
          </mxGeometry>
        </mxCell>
        <mxCell id="NcAq1nEZuETaazXwx4-U-13" value="" style="rounded=1;whiteSpace=wrap;html=1;fillColor=#f5f5f5;fontColor=#333333;strokeColor=#666666;sketch=1;curveFitting=1;jiggle=2;fontFamily=Gloria Hallelujah;fontSource=https%3A%2F%2Ffonts.googleapis.com%2Fcss%3Ffamily%3DGloria%2BHallelujah;fontSize=13;" parent="NcAq1nEZuETaazXwx4-U-1" vertex="1">
          <mxGeometry x="257" y="392" width="100" height="220" as="geometry" />
        </mxCell>
        <mxCell id="NcAq1nEZuETaazXwx4-U-18" value="" style="line;strokeWidth=2;html=1;rounded=1;shadow=0;strokeColor=#808080;align=center;verticalAlign=middle;fontFamily=Gloria Hallelujah;fontSize=13;fontColor=default;fillColor=#e1d5e7;dashed=1;fontSource=https%3A%2F%2Ffonts.googleapis.com%2Fcss%3Ffamily%3DGloria%2BHallelujah;" parent="NcAq1nEZuETaazXwx4-U-1" vertex="1">
          <mxGeometry x="249" y="342" width="540" height="11.25" as="geometry" />
        </mxCell>
        <mxCell id="NcAq1nEZuETaazXwx4-U-21" style="edgeStyle=orthogonalEdgeStyle;curved=1;rounded=0;sketch=1;jiggle=2;curveFitting=1;orthogonalLoop=1;jettySize=auto;html=1;exitX=0.75;exitY=0.1;exitDx=0;exitDy=0;exitPerimeter=0;strokeColor=default;align=center;verticalAlign=middle;fontFamily=Gloria Hallelujah;fontSize=13;fontColor=default;labelBackgroundColor=default;endArrow=classic;fontSource=https%3A%2F%2Ffonts.googleapis.com%2Fcss%3Ffamily%3DGloria%2BHallelujah;entryX=0;entryY=0.25;entryDx=0;entryDy=0;" parent="NcAq1nEZuETaazXwx4-U-1" source="NcAq1nEZuETaazXwx4-U-22" target="ljjwXp4fXD9O23kHXZ_o-3" edge="1">
          <mxGeometry relative="1" as="geometry">
            <mxPoint x="286" y="489" as="targetPoint" />
          </mxGeometry>
        </mxCell>
        <mxCell id="NcAq1nEZuETaazXwx4-U-22" value="Application Users" style="shape=umlActor;verticalLabelPosition=bottom;verticalAlign=top;html=1;outlineConnect=0;rounded=1;shadow=1;sketch=1;jiggle=2;curveFitting=1;strokeColor=#1A1A1A;align=center;fontFamily=Gloria Hallelujah;fontSize=13;fontColor=default;fillColor=#e1d5e7;fontSource=https%3A%2F%2Ffonts.googleapis.com%2Fcss%3Ffamily%3DGloria%2BHallelujah;" parent="NcAq1nEZuETaazXwx4-U-1" vertex="1">
          <mxGeometry x="123" y="422" width="30" height="60" as="geometry" />
        </mxCell>
        <mxCell id="NcAq1nEZuETaazXwx4-U-24" value="" style="rounded=1;whiteSpace=wrap;html=1;fillColor=#fff2cc;strokeColor=#d6b656;sketch=1;curveFitting=1;jiggle=2;fontFamily=Gloria Hallelujah;fontSource=https%3A%2F%2Ffonts.googleapis.com%2Fcss%3Ffamily%3DGloria%2BHallelujah;fontSize=13;" parent="NcAq1nEZuETaazXwx4-U-1" vertex="1">
          <mxGeometry x="389" y="222" width="210" height="90" as="geometry" />
        </mxCell>
        <mxCell id="NcAq1nEZuETaazXwx4-U-26" style="edgeStyle=orthogonalEdgeStyle;curved=1;rounded=0;orthogonalLoop=1;jettySize=auto;html=1;exitX=0;exitY=0.25;exitDx=0;exitDy=0;strokeColor=#FF8000;align=center;verticalAlign=middle;fontFamily=Gloria Hallelujah;fontSize=13;fontColor=default;labelBackgroundColor=default;endArrow=classic;fontSource=https%3A%2F%2Ffonts.googleapis.com%2Fcss%3Ffamily%3DGloria%2BHallelujah;flowAnimation=1;strokeWidth=2;entryX=1;entryY=0.5;entryDx=0;entryDy=0;" parent="NcAq1nEZuETaazXwx4-U-1" source="ljjwXp4fXD9O23kHXZ_o-17" target="ljjwXp4fXD9O23kHXZ_o-18" edge="1">
          <mxGeometry relative="1" as="geometry">
            <mxPoint x="465.0130399999998" y="254.50199999999995" as="sourcePoint" />
            <mxPoint x="327" y="282" as="targetPoint" />
          </mxGeometry>
        </mxCell>
        <mxCell id="NcAq1nEZuETaazXwx4-U-30" value="" style="rounded=1;whiteSpace=wrap;html=1;fillColor=#f5f5f5;fontColor=#333333;strokeColor=#666666;sketch=1;curveFitting=1;jiggle=2;fontFamily=Gloria Hallelujah;fontSource=https%3A%2F%2Ffonts.googleapis.com%2Fcss%3Ffamily%3DGloria%2BHallelujah;fontSize=13;" parent="NcAq1nEZuETaazXwx4-U-1" vertex="1">
          <mxGeometry x="499" y="392" width="210" height="90" as="geometry" />
        </mxCell>
        <mxCell id="NcAq1nEZuETaazXwx4-U-37" value="Cloud Workload&lt;div style=&quot;font-size: 13px;&quot;&gt;Scanning Results&lt;/div&gt;" style="edgeStyle=orthogonalEdgeStyle;curved=1;rounded=0;orthogonalLoop=1;jettySize=auto;html=1;strokeColor=#FF8000;align=center;verticalAlign=middle;fontFamily=Gloria Hallelujah;fontSize=13;fontColor=default;labelBackgroundColor=default;endArrow=classic;entryX=1;entryY=0.5;entryDx=0;entryDy=0;flowAnimation=1;dashed=1;strokeWidth=2;fontSource=https%3A%2F%2Ffonts.googleapis.com%2Fcss%3Ffamily%3DGloria%2BHallelujah;exitX=-0.05;exitY=0.484;exitDx=0;exitDy=0;exitPerimeter=0;" parent="NcAq1nEZuETaazXwx4-U-1" target="NcAq1nEZuETaazXwx4-U-3" edge="1">
          <mxGeometry x="0.1477" y="-15" relative="1" as="geometry">
            <mxPoint x="285" y="281.48800000000006" as="sourcePoint" />
            <mxPoint x="49" y="347" as="targetPoint" />
            <mxPoint as="offset" />
            <Array as="points">
              <mxPoint x="285" y="290" />
              <mxPoint x="182" y="290" />
              <mxPoint x="182" y="380" />
            </Array>
          </mxGeometry>
        </mxCell>
        <mxCell id="NcAq1nEZuETaazXwx4-U-38" value="&lt;ul style=&quot;font-size: 13px;&quot;&gt;&lt;li style=&quot;font-size: 13px;&quot;&gt;Vulerability&lt;/li&gt;&lt;li style=&quot;font-size: 13px;&quot;&gt;Compliance&lt;/li&gt;&lt;li style=&quot;font-size: 13px;&quot;&gt;Embedded Secret&lt;/li&gt;&lt;li style=&quot;font-size: 13px;&quot;&gt;Malware&lt;/li&gt;&lt;/ul&gt;" style="edgeStyle=orthogonalEdgeStyle;curved=1;rounded=0;orthogonalLoop=1;jettySize=auto;html=1;exitX=0.5;exitY=0;exitDx=0;exitDy=0;entryX=1;entryY=0.25;entryDx=0;entryDy=0;strokeColor=#FF8000;align=left;verticalAlign=middle;fontFamily=Gloria Hallelujah;fontSize=13;fontColor=default;labelBackgroundColor=none;endArrow=classic;fontSource=https%3A%2F%2Ffonts.googleapis.com%2Fcss%3Ffamily%3DGloria%2BHallelujah;flowAnimation=1;strokeWidth=2;" parent="NcAq1nEZuETaazXwx4-U-1" source="ljjwXp4fXD9O23kHXZ_o-15" target="ljjwXp4fXD9O23kHXZ_o-17" edge="1">
          <mxGeometry x="0.087" relative="1" as="geometry">
            <mxPoint as="offset" />
            <mxPoint x="632.5900000000001" y="336" as="sourcePoint" />
            <mxPoint x="516.2408399999999" y="253.51299999999992" as="targetPoint" />
          </mxGeometry>
        </mxCell>
        <mxCell id="NcAq1nEZuETaazXwx4-U-39" value="Mount &amp;amp; Scan" style="text;html=1;align=center;verticalAlign=middle;whiteSpace=wrap;rounded=0;fontFamily=Gloria Hallelujah;fontSize=13;fontColor=default;fontSource=https%3A%2F%2Ffonts.googleapis.com%2Fcss%3Ffamily%3DGloria%2BHallelujah;" parent="NcAq1nEZuETaazXwx4-U-1" vertex="1">
          <mxGeometry x="617" y="307" width="118" height="30" as="geometry" />
        </mxCell>
        <mxCell id="NcAq1nEZuETaazXwx4-U-40" value="" style="group;fontSize=13;fontFamily=Gloria Hallelujah;fontSource=https%3A%2F%2Ffonts.googleapis.com%2Fcss%3Ffamily%3DGloria%2BHallelujah;" parent="NcAq1nEZuETaazXwx4-U-1" vertex="1" connectable="0">
          <mxGeometry x="737" y="287" width="57.14" height="50" as="geometry" />
        </mxCell>
        <mxCell id="NcAq1nEZuETaazXwx4-U-41" value="" style="curved=1;endArrow=classic;html=1;rounded=0;sketch=1;jiggle=2;curveFitting=1;strokeColor=default;align=center;verticalAlign=middle;fontFamily=Gloria Hallelujah;fontSize=13;fontColor=default;labelBackgroundColor=default;edgeStyle=orthogonalEdgeStyle;fontSource=https%3A%2F%2Ffonts.googleapis.com%2Fcss%3Ffamily%3DGloria%2BHallelujah;" parent="NcAq1nEZuETaazXwx4-U-40" edge="1">
          <mxGeometry width="50" height="50" relative="1" as="geometry">
            <mxPoint x="21.427500000000002" y="50" as="sourcePoint" />
            <mxPoint x="57.14" y="14.285714285714286" as="targetPoint" />
            <Array as="points">
              <mxPoint x="57.14" y="50" />
              <mxPoint x="21.427500000000002" y="14.285714285714286" />
            </Array>
          </mxGeometry>
        </mxCell>
        <mxCell id="NcAq1nEZuETaazXwx4-U-42" value="" style="curved=1;endArrow=classic;html=1;rounded=0;sketch=1;jiggle=2;curveFitting=1;strokeColor=default;align=center;verticalAlign=middle;fontFamily=Gloria Hallelujah;fontSize=13;fontColor=default;labelBackgroundColor=default;edgeStyle=orthogonalEdgeStyle;fontSource=https%3A%2F%2Ffonts.googleapis.com%2Fcss%3Ffamily%3DGloria%2BHallelujah;" parent="NcAq1nEZuETaazXwx4-U-40" edge="1">
          <mxGeometry width="50" height="50" relative="1" as="geometry">
            <mxPoint x="35.712500000000006" as="sourcePoint" />
            <mxPoint y="35.714285714285715" as="targetPoint" />
            <Array as="points">
              <mxPoint />
              <mxPoint x="35.712500000000006" y="35.714285714285715" />
            </Array>
          </mxGeometry>
        </mxCell>
        <mxCell id="NcAq1nEZuETaazXwx4-U-43" value="24&lt;div style=&quot;font-size: 13px;&quot;&gt;Hours&lt;/div&gt;" style="text;html=1;align=center;verticalAlign=middle;whiteSpace=wrap;rounded=0;fontFamily=Gloria Hallelujah;fontSize=13;fontColor=default;fontSource=https%3A%2F%2Ffonts.googleapis.com%2Fcss%3Ffamily%3DGloria%2BHallelujah;" parent="NcAq1nEZuETaazXwx4-U-40" vertex="1">
          <mxGeometry x="7.1425" y="14.285714285714286" width="42.855000000000004" height="21.42857142857143" as="geometry" />
        </mxCell>
        <mxCell id="NcAq1nEZuETaazXwx4-U-44" value="PaaS" style="rounded=1;whiteSpace=wrap;html=1;fillColor=#f5f5f5;fontColor=#333333;strokeColor=#666666;sketch=1;curveFitting=1;jiggle=2;fontFamily=Gloria Hallelujah;fontSource=https%3A%2F%2Ffonts.googleapis.com%2Fcss%3Ffamily%3DGloria%2BHallelujah;fontSize=13;" parent="NcAq1nEZuETaazXwx4-U-1" vertex="1">
          <mxGeometry x="729" y="392" width="72" height="222" as="geometry" />
        </mxCell>
        <mxCell id="NcAq1nEZuETaazXwx4-U-45" value="IAM" style="rounded=1;whiteSpace=wrap;html=1;fillColor=#f5f5f5;fontColor=#333333;strokeColor=#666666;sketch=1;curveFitting=1;jiggle=2;fontFamily=Gloria Hallelujah;fontSource=https%3A%2F%2Ffonts.googleapis.com%2Fcss%3Ffamily%3DGloria%2BHallelujah;fontSize=13;" parent="NcAq1nEZuETaazXwx4-U-1" vertex="1">
          <mxGeometry x="732" y="639" width="72" height="30" as="geometry" />
        </mxCell>
        <mxCell id="T-xyQ6KzFTJhyV4k8-1Z-5" style="edgeStyle=orthogonalEdgeStyle;curved=1;rounded=0;hachureGap=4;orthogonalLoop=1;jettySize=auto;html=1;strokeColor=#000000;strokeWidth=1;align=center;verticalAlign=middle;fontFamily=Architects Daughter;fontSource=https%3A%2F%2Ffonts.googleapis.com%2Fcss%3Ffamily%3DArchitects%2BDaughter;fontSize=11;fontColor=default;labelBackgroundColor=default;endArrow=classic;flowAnimation=0;sketch=1;curveFitting=1;jiggle=2;" parent="NcAq1nEZuETaazXwx4-U-1" source="NcAq1nEZuETaazXwx4-U-87" edge="1">
          <mxGeometry relative="1" as="geometry">
            <mxPoint x="275.5" y="195.5" as="targetPoint" />
          </mxGeometry>
        </mxCell>
        <mxCell id="NcAq1nEZuETaazXwx4-U-87" value="Whitelisting Public IP From Prisma CLoud" style="text;html=1;align=center;verticalAlign=middle;whiteSpace=wrap;rounded=0;fontFamily=Gloria Hallelujah;fontSource=https%3A%2F%2Ffonts.googleapis.com%2Fcss%3Ffamily%3DGloria%2BHallelujah;fontSize=13;" parent="NcAq1nEZuETaazXwx4-U-1" vertex="1">
          <mxGeometry x="311" y="126" width="125" height="30" as="geometry" />
        </mxCell>
        <mxCell id="NcAq1nEZuETaazXwx4-U-89" value="Service Account&lt;div&gt;Key&lt;/div&gt;" style="shape=umlActor;verticalLabelPosition=bottom;verticalAlign=top;html=1;outlineConnect=0;sketch=1;hachureGap=4;jiggle=2;curveFitting=1;fontFamily=Architects Daughter;fontSource=https%3A%2F%2Ffonts.googleapis.com%2Fcss%3Ffamily%3DArchitects%2BDaughter;fontSize=13;" parent="NcAq1nEZuETaazXwx4-U-1" vertex="1">
          <mxGeometry x="-177" y="206" width="20" height="41" as="geometry" />
        </mxCell>
        <mxCell id="NcAq1nEZuETaazXwx4-U-90" value="Whitelisting" style="text;html=1;align=center;verticalAlign=middle;whiteSpace=wrap;rounded=0;fontFamily=Gloria Hallelujah;fontSource=https%3A%2F%2Ffonts.googleapis.com%2Fcss%3Ffamily%3DGloria%2BHallelujah;fontSize=13;" parent="NcAq1nEZuETaazXwx4-U-1" vertex="1">
          <mxGeometry x="290" y="626" width="72" height="30" as="geometry" />
        </mxCell>
        <mxCell id="P75K7gAuZfAj4uCHvaLu-4" value="Terraform Script" style="edgeStyle=orthogonalEdgeStyle;rounded=0;hachureGap=4;orthogonalLoop=1;jettySize=auto;html=1;entryX=0.5;entryY=0;entryDx=0;entryDy=0;fontFamily=Architects Daughter;fontSource=https%3A%2F%2Ffonts.googleapis.com%2Fcss%3Ffamily%3DArchitects%2BDaughter;curved=1;flowAnimation=1;exitX=0.5;exitY=0;exitDx=0;exitDy=0;strokeWidth=2;strokeColor=#00CC00;fontSize=13;" parent="NcAq1nEZuETaazXwx4-U-1" source="P75K7gAuZfAj4uCHvaLu-0" edge="1">
          <mxGeometry x="-0.003" relative="1" as="geometry">
            <Array as="points">
              <mxPoint x="-419" y="101" />
              <mxPoint x="253" y="101" />
            </Array>
            <mxPoint as="offset" />
            <mxPoint x="252.85500000000002" y="202" as="targetPoint" />
          </mxGeometry>
        </mxCell>
        <mxCell id="P75K7gAuZfAj4uCHvaLu-0" value="&lt;div style=&quot;font-size: 13px;&quot;&gt;Terraform&lt;/div&gt;&lt;div style=&quot;font-size: 13px;&quot;&gt;Template&lt;br&gt;For Creating Role&lt;/div&gt;" style="shape=document;whiteSpace=wrap;html=1;boundedLbl=1;sketch=1;hachureGap=4;jiggle=2;curveFitting=1;fontFamily=Architects Daughter;fontSource=https%3A%2F%2Ffonts.googleapis.com%2Fcss%3Ffamily%3DArchitects%2BDaughter;fontSize=13;fillColor=#fff2cc;strokeColor=#d6b656;" parent="NcAq1nEZuETaazXwx4-U-1" vertex="1">
          <mxGeometry x="-479" y="307" width="120" height="80" as="geometry" />
        </mxCell>
        <mxCell id="P75K7gAuZfAj4uCHvaLu-1" value="Generate" style="edgeStyle=orthogonalEdgeStyle;rounded=0;hachureGap=4;orthogonalLoop=1;jettySize=auto;html=1;entryX=1.001;entryY=0.319;entryDx=0;entryDy=0;entryPerimeter=0;fontFamily=Architects Daughter;fontSource=https%3A%2F%2Ffonts.googleapis.com%2Fcss%3Ffamily%3DArchitects%2BDaughter;flowAnimation=1;curved=1;strokeWidth=2;strokeColor=#00CC00;fontSize=13;" parent="NcAq1nEZuETaazXwx4-U-1" source="NcAq1nEZuETaazXwx4-U-3" target="P75K7gAuZfAj4uCHvaLu-0" edge="1">
          <mxGeometry relative="1" as="geometry" />
        </mxCell>
        <mxCell id="P75K7gAuZfAj4uCHvaLu-15" value="&lt;span style=&quot;color: rgb(0, 0, 0); font-family: &amp;quot;Architects Daughter&amp;quot;; font-size: 13px; font-style: normal; font-variant-ligatures: normal; font-variant-caps: normal; font-weight: 400; letter-spacing: normal; orphans: 2; text-align: center; text-indent: 0px; text-transform: none; widows: 2; word-spacing: 0px; -webkit-text-stroke-width: 0px; white-space: normal; text-decoration-thickness: initial; text-decoration-style: initial; text-decoration-color: initial; float: none; display: inline !important;&quot;&gt;Prisma Cloud&lt;/span&gt;&lt;div style=&quot;forced-color-adjust: none; color: rgb(0, 0, 0); font-family: &amp;quot;Architects Daughter&amp;quot;; font-size: 13px; font-style: normal; font-variant-ligatures: normal; font-variant-caps: normal; font-weight: 400; letter-spacing: normal; orphans: 2; text-align: center; text-indent: 0px; text-transform: none; widows: 2; word-spacing: 0px; -webkit-text-stroke-width: 0px; white-space: normal; text-decoration-thickness: initial; text-decoration-style: initial; text-decoration-color: initial;&quot;&gt;Readonly&lt;/div&gt;" style="shape=callout;whiteSpace=wrap;html=1;perimeter=calloutPerimeter;sketch=1;hachureGap=4;jiggle=2;curveFitting=1;fontFamily=Architects Daughter;fontSource=https%3A%2F%2Ffonts.googleapis.com%2Fcss%3Ffamily%3DArchitects%2BDaughter;fontSize=13;labelBackgroundColor=none;position2=0.74;fillColor=#fff2cc;gradientColor=#ffd966;strokeColor=#d6b656;" parent="NcAq1nEZuETaazXwx4-U-1" vertex="1">
          <mxGeometry x="-231" y="135" width="120" height="78" as="geometry" />
        </mxCell>
        <mxCell id="P75K7gAuZfAj4uCHvaLu-16" value="Tenant ID&lt;div&gt;Subscription ID&lt;/div&gt;" style="shape=callout;whiteSpace=wrap;html=1;perimeter=calloutPerimeter;sketch=1;hachureGap=4;jiggle=2;curveFitting=1;fontFamily=Architects Daughter;fontSource=https%3A%2F%2Ffonts.googleapis.com%2Fcss%3Ffamily%3DArchitects%2BDaughter;fontSize=13;labelBackgroundColor=none;position2=0.39;fillColor=#fff2cc;gradientColor=#ffd966;strokeColor=#d6b656;" parent="NcAq1nEZuETaazXwx4-U-1" vertex="1">
          <mxGeometry x="-357" y="251" width="120" height="78" as="geometry" />
        </mxCell>
        <mxCell id="7pGZ9WqOaXK99MdqoYnM-0" value="Azure&lt;div&gt;Global Admin&lt;/div&gt;" style="shape=umlActor;verticalLabelPosition=bottom;verticalAlign=top;html=1;outlineConnect=0;sketch=1;hachureGap=4;jiggle=2;curveFitting=1;fontFamily=Architects Daughter;fontSource=https%3A%2F%2Ffonts.googleapis.com%2Fcss%3Ffamily%3DArchitects%2BDaughter;fontSize=13;fontColor=default;labelBackgroundColor=default;" parent="NcAq1nEZuETaazXwx4-U-1" vertex="1">
          <mxGeometry x="-194" y="-6" width="25" height="49" as="geometry" />
        </mxCell>
        <mxCell id="7pGZ9WqOaXK99MdqoYnM-6" value="5-20mins" style="text;html=1;align=center;verticalAlign=middle;whiteSpace=wrap;rounded=0;fontFamily=Gloria Hallelujah;fontSource=https%3A%2F%2Ffonts.googleapis.com%2Fcss%3Ffamily%3DGloria%2BHallelujah;fontSize=13;fontColor=default;labelBackgroundColor=#FFFF33;fontStyle=1" parent="NcAq1nEZuETaazXwx4-U-1" vertex="1">
          <mxGeometry x="150" y="230" width="60" height="30" as="geometry" />
        </mxCell>
        <mxCell id="7pGZ9WqOaXK99MdqoYnM-7" value="CMDB" style="shape=cylinder3;whiteSpace=wrap;html=1;boundedLbl=1;backgroundOutline=1;size=15;sketch=1;hachureGap=4;jiggle=2;curveFitting=1;fontFamily=Architects Daughter;fontSource=https%3A%2F%2Ffonts.googleapis.com%2Fcss%3Ffamily%3DArchitects%2BDaughter;fontSize=13;labelBackgroundColor=none;fillColor=#f5f5f5;strokeColor=#666666;gradientColor=#b3b3b3;" parent="NcAq1nEZuETaazXwx4-U-1" vertex="1">
          <mxGeometry x="-220" y="391" width="60" height="65" as="geometry" />
        </mxCell>
        <mxCell id="7pGZ9WqOaXK99MdqoYnM-9" value="Store&lt;div style=&quot;font-size: 13px;&quot;&gt;Configuration&lt;/div&gt;" style="edgeStyle=orthogonalEdgeStyle;curved=1;rounded=0;hachureGap=4;orthogonalLoop=1;jettySize=auto;html=1;exitX=0.5;exitY=1;exitDx=0;exitDy=0;entryX=0.5;entryY=1;entryDx=0;entryDy=0;entryPerimeter=0;strokeColor=#7F00FF;strokeWidth=2;align=center;verticalAlign=middle;fontFamily=Architects Daughter;fontSource=https%3A%2F%2Ffonts.googleapis.com%2Fcss%3Ffamily%3DArchitects%2BDaughter;fontSize=13;fontColor=default;labelBackgroundColor=default;endArrow=classic;flowAnimation=1;dashed=1;dashPattern=1 4;" parent="NcAq1nEZuETaazXwx4-U-1" source="NcAq1nEZuETaazXwx4-U-3" target="7pGZ9WqOaXK99MdqoYnM-7" edge="1">
          <mxGeometry x="-0.5319" y="-4" relative="1" as="geometry">
            <Array as="points">
              <mxPoint x="-121" y="497" />
              <mxPoint x="-190" y="497" />
            </Array>
            <mxPoint as="offset" />
          </mxGeometry>
        </mxCell>
        <mxCell id="T-xyQ6KzFTJhyV4k8-1Z-0" value="Network Flog Logs&lt;div style=&quot;font-size: 13px;&quot;&gt;Collection &amp;amp; Analysis&lt;/div&gt;" style="edgeStyle=orthogonalEdgeStyle;curved=1;rounded=0;orthogonalLoop=1;jettySize=auto;html=1;exitX=0.75;exitY=1;exitDx=0;exitDy=0;strokeColor=#0000FF;strokeWidth=2;align=center;verticalAlign=middle;fontFamily=Gloria Hallelujah;fontSource=https%3A%2F%2Ffonts.googleapis.com%2Fcss%3Ffamily%3DGloria%2BHallelujah;fontSize=13;fontColor=default;labelBackgroundColor=default;endArrow=classic;flowAnimation=1;dashed=1;dashPattern=1 4;entryX=0;entryY=0.5;entryDx=0;entryDy=0;" parent="NcAq1nEZuETaazXwx4-U-1" source="NcAq1nEZuETaazXwx4-U-3" target="ljjwXp4fXD9O23kHXZ_o-8" edge="1">
          <mxGeometry x="0.1198" y="80" relative="1" as="geometry">
            <mxPoint x="1" as="offset" />
            <mxPoint x="295.9749999999999" y="680.5" as="targetPoint" />
          </mxGeometry>
        </mxCell>
        <mxCell id="T-xyQ6KzFTJhyV4k8-1Z-8" style="edgeStyle=orthogonalEdgeStyle;curved=1;rounded=0;hachureGap=4;orthogonalLoop=1;jettySize=auto;html=1;exitX=0;exitY=0.75;exitDx=0;exitDy=0;exitPerimeter=0;strokeColor=#808080;strokeWidth=2;align=center;verticalAlign=middle;fontFamily=Architects Daughter;fontSource=https%3A%2F%2Ffonts.googleapis.com%2Fcss%3Ffamily%3DArchitects%2BDaughter;fontSize=11;fontColor=default;labelBackgroundColor=default;endArrow=classic;flowAnimation=1;" parent="NcAq1nEZuETaazXwx4-U-1" edge="1">
          <mxGeometry relative="1" as="geometry">
            <mxPoint x="-136.5" y="93.5" as="targetPoint" />
            <mxPoint x="-98" y="29.5" as="sourcePoint" />
          </mxGeometry>
        </mxCell>
        <mxCell id="T-xyQ6KzFTJhyV4k8-1Z-7" style="edgeStyle=orthogonalEdgeStyle;curved=1;rounded=0;hachureGap=4;orthogonalLoop=1;jettySize=auto;html=1;exitX=0.5;exitY=0.5;exitDx=0;exitDy=0;exitPerimeter=0;entryX=0;entryY=0.5;entryDx=0;entryDy=0;entryPerimeter=0;strokeColor=#808080;strokeWidth=2;align=center;verticalAlign=middle;fontFamily=Architects Daughter;fontSource=https%3A%2F%2Ffonts.googleapis.com%2Fcss%3Ffamily%3DArchitects%2BDaughter;fontSize=11;fontColor=default;labelBackgroundColor=default;endArrow=classic;flowAnimation=1;" parent="NcAq1nEZuETaazXwx4-U-1" source="7pGZ9WqOaXK99MdqoYnM-0" edge="1">
          <mxGeometry relative="1" as="geometry">
            <mxPoint x="-98" y="18" as="targetPoint" />
          </mxGeometry>
        </mxCell>
        <mxCell id="T-xyQ6KzFTJhyV4k8-1Z-9" value="1" style="ellipse;whiteSpace=wrap;html=1;aspect=fixed;sketch=1;hachureGap=4;jiggle=2;curveFitting=1;fontFamily=Gloria Hallelujah;fontSource=https%3A%2F%2Ffonts.googleapis.com%2Fcss%3Ffamily%3DGloria%2BHallelujah;fontSize=16;labelBackgroundColor=default;fillColor=#ffe6cc;strokeColor=#d79b00;" parent="NcAq1nEZuETaazXwx4-U-1" vertex="1">
          <mxGeometry x="27" y="36" width="51" height="51" as="geometry" />
        </mxCell>
        <mxCell id="T-xyQ6KzFTJhyV4k8-1Z-10" value="Onboarding" style="text;html=1;align=center;verticalAlign=middle;whiteSpace=wrap;rounded=0;fontFamily=Gloria Hallelujah;fontSource=https%3A%2F%2Ffonts.googleapis.com%2Fcss%3Ffamily%3DGloria%2BHallelujah;fontSize=13;fontColor=default;labelBackgroundColor=default;" parent="NcAq1nEZuETaazXwx4-U-1" vertex="1">
          <mxGeometry x="83" y="47" width="88" height="30" as="geometry" />
        </mxCell>
        <mxCell id="T-xyQ6KzFTJhyV4k8-1Z-11" value="2" style="ellipse;whiteSpace=wrap;html=1;aspect=fixed;sketch=1;hachureGap=4;jiggle=2;curveFitting=1;fontFamily=Gloria Hallelujah;fontSource=https%3A%2F%2Ffonts.googleapis.com%2Fcss%3Ffamily%3DGloria%2BHallelujah;fontSize=16;labelBackgroundColor=default;fillColor=#ffe6cc;strokeColor=#d79b00;" parent="NcAq1nEZuETaazXwx4-U-1" vertex="1">
          <mxGeometry x="91" y="209" width="51" height="51" as="geometry" />
        </mxCell>
        <mxCell id="T-xyQ6KzFTJhyV4k8-1Z-13" value="3" style="ellipse;whiteSpace=wrap;html=1;aspect=fixed;sketch=1;hachureGap=4;jiggle=2;curveFitting=1;fontFamily=Gloria Hallelujah;fontSource=https%3A%2F%2Ffonts.googleapis.com%2Fcss%3Ffamily%3DGloria%2BHallelujah;fontSize=16;labelBackgroundColor=default;fillColor=#ffe6cc;strokeColor=#d79b00;" parent="NcAq1nEZuETaazXwx4-U-1" vertex="1">
          <mxGeometry x="104" y="594" width="51" height="51" as="geometry" />
        </mxCell>
        <mxCell id="T-xyQ6KzFTJhyV4k8-1Z-14" value="4" style="ellipse;whiteSpace=wrap;html=1;aspect=fixed;sketch=1;hachureGap=4;jiggle=2;curveFitting=1;fontFamily=Gloria Hallelujah;fontSource=https%3A%2F%2Ffonts.googleapis.com%2Fcss%3Ffamily%3DGloria%2BHallelujah;fontSize=16;labelBackgroundColor=default;fillColor=#ffe6cc;strokeColor=#d79b00;" parent="NcAq1nEZuETaazXwx4-U-1" vertex="1">
          <mxGeometry x="762" y="210" width="51" height="51" as="geometry" />
        </mxCell>
        <mxCell id="T-xyQ6KzFTJhyV4k8-1Z-16" value="" style="shape=image;imageAspect=0;aspect=fixed;verticalLabelPosition=bottom;verticalAlign=top;rounded=0;align=center;fontFamily=Gloria Hallelujah;fontSource=https%3A%2F%2Ffonts.googleapis.com%2Fcss%3Ffamily%3DGloria%2BHallelujah;fontSize=13;fontColor=default;labelBackgroundColor=default;fillColor=none;gradientColor=none;image=https://images.crunchbase.com/image/upload/c_pad,f_auto,q_auto:eco,dpr_1/rfuwf3yqq2cermkmrej6;" parent="NcAq1nEZuETaazXwx4-U-1" vertex="1">
          <mxGeometry x="-82" y="349" width="49.11" height="64" as="geometry" />
        </mxCell>
        <mxCell id="T-xyQ6KzFTJhyV4k8-1Z-36" value="" style="group" parent="NcAq1nEZuETaazXwx4-U-1" vertex="1" connectable="0">
          <mxGeometry x="626" y="558" width="22" height="24" as="geometry" />
        </mxCell>
        <mxCell id="T-xyQ6KzFTJhyV4k8-1Z-35" value="" style="whiteSpace=wrap;html=1;aspect=fixed;rounded=0;align=center;verticalAlign=middle;fontFamily=Gloria Hallelujah;fontSource=https%3A%2F%2Ffonts.googleapis.com%2Fcss%3Ffamily%3DGloria%2BHallelujah;fontSize=13;fontColor=default;labelBackgroundColor=none;fillColor=default;gradientColor=none;sketch=1;curveFitting=1;jiggle=2;" parent="T-xyQ6KzFTJhyV4k8-1Z-36" vertex="1">
          <mxGeometry width="22" height="22" as="geometry" />
        </mxCell>
        <mxCell id="T-xyQ6KzFTJhyV4k8-1Z-34" value="" style="shape=image;imageAspect=0;aspect=fixed;verticalLabelPosition=bottom;verticalAlign=top;rounded=0;align=center;fontFamily=Gloria Hallelujah;fontSource=https%3A%2F%2Ffonts.googleapis.com%2Fcss%3Ffamily%3DGloria%2BHallelujah;fontSize=13;fontColor=default;labelBackgroundColor=default;fillColor=none;gradientColor=none;image=https://images.crunchbase.com/image/upload/c_pad,f_auto,q_auto:eco,dpr_1/rfuwf3yqq2cermkmrej6;" parent="T-xyQ6KzFTJhyV4k8-1Z-36" vertex="1">
          <mxGeometry x="2" width="18.42" height="24" as="geometry" />
        </mxCell>
        <mxCell id="T-xyQ6KzFTJhyV4k8-1Z-39" style="edgeStyle=orthogonalEdgeStyle;curved=1;rounded=0;sketch=1;hachureGap=4;jiggle=2;curveFitting=1;orthogonalLoop=1;jettySize=auto;html=1;exitX=0.5;exitY=0;exitDx=0;exitDy=0;entryX=1;entryY=0.5;entryDx=0;entryDy=0;strokeColor=#000000;strokeWidth=1;align=center;verticalAlign=middle;fontFamily=Architects Daughter;fontSource=https%3A%2F%2Ffonts.googleapis.com%2Fcss%3Ffamily%3DArchitects%2BDaughter;fontSize=11;fontColor=default;labelBackgroundColor=default;endArrow=classic;flowAnimation=0;" parent="NcAq1nEZuETaazXwx4-U-1" source="T-xyQ6KzFTJhyV4k8-1Z-37" target="T-xyQ6KzFTJhyV4k8-1Z-35" edge="1">
          <mxGeometry relative="1" as="geometry" />
        </mxCell>
        <mxCell id="T-xyQ6KzFTJhyV4k8-1Z-37" value="Prisma Cloud&lt;div&gt;Agent&lt;/div&gt;" style="text;html=1;align=center;verticalAlign=middle;whiteSpace=wrap;rounded=0;fontFamily=Gloria Hallelujah;fontSource=https%3A%2F%2Ffonts.googleapis.com%2Fcss%3Ffamily%3DGloria%2BHallelujah;fontSize=13;" parent="NcAq1nEZuETaazXwx4-U-1" vertex="1">
          <mxGeometry x="623" y="611" width="95" height="35" as="geometry" />
        </mxCell>
        <mxCell id="T-xyQ6KzFTJhyV4k8-1Z-41" value="Agent Traffic" style="edgeStyle=orthogonalEdgeStyle;curved=1;rounded=0;orthogonalLoop=1;jettySize=auto;html=1;exitX=0;exitY=0.5;exitDx=0;exitDy=0;entryX=0.89;entryY=1.02;entryDx=0;entryDy=0;entryPerimeter=0;dashed=1;strokeColor=default;strokeWidth=1;align=center;verticalAlign=middle;fontFamily=Gloria Hallelujah;fontSource=https%3A%2F%2Ffonts.googleapis.com%2Fcss%3Ffamily%3DGloria%2BHallelujah;fontSize=13;fontColor=default;labelBackgroundColor=default;endArrow=classic;flowAnimation=1;dashPattern=1 4;" parent="NcAq1nEZuETaazXwx4-U-1" source="T-xyQ6KzFTJhyV4k8-1Z-34" target="NcAq1nEZuETaazXwx4-U-3" edge="1">
          <mxGeometry x="0.1301" relative="1" as="geometry">
            <Array as="points">
              <mxPoint x="628" y="545" />
              <mxPoint x="-31" y="545" />
            </Array>
            <mxPoint as="offset" />
          </mxGeometry>
        </mxCell>
        <mxCell id="T-xyQ6KzFTJhyV4k8-1Z-42" value="5" style="ellipse;whiteSpace=wrap;html=1;aspect=fixed;sketch=1;hachureGap=4;jiggle=2;curveFitting=1;fontFamily=Gloria Hallelujah;fontSource=https%3A%2F%2Ffonts.googleapis.com%2Fcss%3Ffamily%3DGloria%2BHallelujah;fontSize=16;labelBackgroundColor=default;fillColor=#ffe6cc;strokeColor=#d79b00;" parent="NcAq1nEZuETaazXwx4-U-1" vertex="1">
          <mxGeometry x="645" y="656" width="51" height="51" as="geometry" />
        </mxCell>
        <mxCell id="VTeo_DVUwEcc_p55htbv-4" value="Image&lt;div&gt;Scan&lt;/div&gt;" style="edgeStyle=orthogonalEdgeStyle;curved=1;rounded=0;hachureGap=4;orthogonalLoop=1;jettySize=auto;html=1;exitX=0.5;exitY=0;exitDx=0;exitDy=0;entryX=0;entryY=0.75;entryDx=0;entryDy=0;strokeColor=#7F00FF;strokeWidth=2;align=center;verticalAlign=middle;fontFamily=Architects Daughter;fontSource=https%3A%2F%2Ffonts.googleapis.com%2Fcss%3Ffamily%3DArchitects%2BDaughter;fontSize=11;fontColor=default;labelBackgroundColor=default;endArrow=classic;flowAnimation=1;" parent="NcAq1nEZuETaazXwx4-U-1" source="T-xyQ6KzFTJhyV4k8-1Z-35" target="ljjwXp4fXD9O23kHXZ_o-22" edge="1">
          <mxGeometry relative="1" as="geometry">
            <mxPoint x="747.3311100000001" y="536.6949999999999" as="targetPoint" />
          </mxGeometry>
        </mxCell>
        <mxCell id="VTeo_DVUwEcc_p55htbv-5" value="" style="shape=image;verticalLabelPosition=bottom;labelBackgroundColor=default;verticalAlign=top;aspect=fixed;imageAspect=0;image=https://blogs.vmware.com/cloudprovider/files/2019/04/og-image-8b3e4f7d-blog-aspect-ratio.png;" parent="NcAq1nEZuETaazXwx4-U-1" vertex="1">
          <mxGeometry x="-124" y="-22" width="97.3" height="73" as="geometry" />
        </mxCell>
        <mxCell id="VTeo_DVUwEcc_p55htbv-6" value="" style="shape=image;verticalLabelPosition=bottom;labelBackgroundColor=default;verticalAlign=top;aspect=fixed;imageAspect=0;image=https://blogs.vmware.com/cloudprovider/files/2019/04/og-image-8b3e4f7d-blog-aspect-ratio.png;" parent="NcAq1nEZuETaazXwx4-U-1" vertex="1">
          <mxGeometry x="-513" y="279" width="61.31" height="46" as="geometry" />
        </mxCell>
        <mxCell id="VTeo_DVUwEcc_p55htbv-29" style="edgeStyle=orthogonalEdgeStyle;curved=1;rounded=0;orthogonalLoop=1;jettySize=auto;html=1;strokeColor=#FF8000;strokeWidth=2;align=left;verticalAlign=middle;fontFamily=Gloria Hallelujah;fontSource=https%3A%2F%2Ffonts.googleapis.com%2Fcss%3Ffamily%3DGloria%2BHallelujah;fontSize=13;fontColor=default;labelBackgroundColor=none;endArrow=classic;flowAnimation=1;" parent="NcAq1nEZuETaazXwx4-U-1" edge="1">
          <mxGeometry relative="1" as="geometry">
            <mxPoint x="632.1999999999998" y="414" as="sourcePoint" />
            <mxPoint x="632.5999999999999" y="379" as="targetPoint" />
          </mxGeometry>
        </mxCell>
        <mxCell id="VTeo_DVUwEcc_p55htbv-28" style="edgeStyle=orthogonalEdgeStyle;curved=1;rounded=0;orthogonalLoop=1;jettySize=auto;html=1;entryX=0.469;entryY=1.007;entryDx=0;entryDy=0;entryPerimeter=0;strokeColor=#FF8000;strokeWidth=2;align=left;verticalAlign=middle;fontFamily=Gloria Hallelujah;fontSource=https%3A%2F%2Ffonts.googleapis.com%2Fcss%3Ffamily%3DGloria%2BHallelujah;fontSize=13;fontColor=default;labelBackgroundColor=none;endArrow=classic;flowAnimation=1;" parent="NcAq1nEZuETaazXwx4-U-1" edge="1">
          <mxGeometry relative="1" as="geometry">
            <mxPoint x="561.1999999999998" y="413" as="sourcePoint" />
            <mxPoint x="560.31342" y="378.30099999999993" as="targetPoint" />
          </mxGeometry>
        </mxCell>
        <mxCell id="VTeo_DVUwEcc_p55htbv-30" style="edgeStyle=orthogonalEdgeStyle;curved=1;rounded=0;orthogonalLoop=1;jettySize=auto;html=1;entryX=1;entryY=0.5;entryDx=0;entryDy=0;strokeColor=#FF8000;strokeWidth=2;align=left;verticalAlign=middle;fontFamily=Gloria Hallelujah;fontSource=https%3A%2F%2Ffonts.googleapis.com%2Fcss%3Ffamily%3DGloria%2BHallelujah;fontSize=13;fontColor=default;labelBackgroundColor=none;endArrow=classic;flowAnimation=1;exitX=0.5;exitY=0;exitDx=0;exitDy=0;" parent="NcAq1nEZuETaazXwx4-U-1" source="ljjwXp4fXD9O23kHXZ_o-14" target="ljjwXp4fXD9O23kHXZ_o-17" edge="1">
          <mxGeometry relative="1" as="geometry">
            <mxPoint x="582.3035399999999" y="354.56500000000005" as="sourcePoint" />
            <mxPoint x="516.0090399999999" y="253.51299999999992" as="targetPoint" />
          </mxGeometry>
        </mxCell>
        <mxCell id="ljjwXp4fXD9O23kHXZ_o-2" value="" style="shape=image;verticalLabelPosition=bottom;labelBackgroundColor=default;verticalAlign=top;aspect=fixed;imageAspect=0;image=https://static-00.iconduck.com/assets.00/google-cloud-icon-2048x1646-7admxejz.png;" vertex="1" parent="NcAq1nEZuETaazXwx4-U-1">
          <mxGeometry x="239" y="210" width="46.17" height="37.09" as="geometry" />
        </mxCell>
        <mxCell id="ljjwXp4fXD9O23kHXZ_o-3" value="Cloud&lt;div&gt;Load&lt;/div&gt;&lt;div&gt;Balancer&lt;/div&gt;" style="editableCssRules=.*;html=1;shape=image;verticalLabelPosition=bottom;labelBackgroundColor=#ffffff;verticalAlign=top;aspect=fixed;imageAspect=0;image=data:image/svg+xml,PHN2ZyB4bWxucz0iaHR0cDovL3d3dy53My5vcmcvMjAwMC9zdmciIHhtbG5zOnY9Imh0dHBzOi8vdmVjdGEuaW8vbmFubyIgd2lkdGg9IjIwIiBoZWlnaHQ9IjIwIiB2aWV3Qm94PSIwIDAgMjAgMjAiPiYjeGE7CTxzdHlsZSB0eXBlPSJ0ZXh0L2NzcyI+JiN4YTsJLnN0MHtmaWxsOiM0Mjg1ZjQ7fSYjeGE7CS5zdDF7ZmlsbDojNjY5ZGY2O30mI3hhOwkuc3Qye2ZpbGw6I2FlY2JmYTt9JiN4YTsJPC9zdHlsZT4mI3hhOwk8cGF0aCBjbGFzcz0ic3QxIiBkPSJNMTYgMTBoMnY0aC0yem0tNyAwaDJ2NEg5em0tNyAwaDJ2NEgyeiIvPiYjeGE7CTxwYXRoIGNsYXNzPSJzdDAiIGQ9Ik05IDVoMnY0SDl6Ii8+JiN4YTsJPHBhdGggY2xhc3M9InN0MSIgZD0iTTIgOWgxNnYySDJ6Ii8+JiN4YTsJPHBhdGggY2xhc3M9InN0MiIgZD0iTTQgMGgxMnY1SDR6Ii8+JiN4YTsJPHBhdGggY2xhc3M9InN0MSIgZD0iTTEwIDBoNnY1aC02eiIvPiYjeGE7CTxwYXRoIGNsYXNzPSJzdDIiIGQ9Ik0xNCAxNGg2djZoLTZ6TTAgMTRoNnY2SDB6Ii8+JiN4YTsJPHBhdGggY2xhc3M9InN0MSIgZD0iTTMgMTRoM3Y2SDN6Ii8+JiN4YTsJPHBhdGggY2xhc3M9InN0MiIgZD0iTTcgMTRoNnY2SDd6Ii8+JiN4YTsJPHBhdGggY2xhc3M9InN0MSIgZD0iTTEwIDE0aDN2NmgtM3ptNyAwaDN2NmgtM3oiLz4mI3hhOzwvc3ZnPg==;sketch=1;hachureGap=4;jiggle=2;curveFitting=1;fontFamily=Architects Daughter;fontSource=https%3A%2F%2Ffonts.googleapis.com%2Fcss%3Ffamily%3DArchitects%2BDaughter;" vertex="1" parent="NcAq1nEZuETaazXwx4-U-1">
          <mxGeometry x="286" y="463" width="44" height="44" as="geometry" />
        </mxCell>
        <mxCell id="ljjwXp4fXD9O23kHXZ_o-4" value="" style="editableCssRules=.*;html=1;shape=image;verticalLabelPosition=bottom;labelBackgroundColor=#ffffff;verticalAlign=top;aspect=fixed;imageAspect=0;image=data:image/svg+xml,PHN2ZyB4bWxucz0iaHR0cDovL3d3dy53My5vcmcvMjAwMC9zdmciIHhtbG5zOnY9Imh0dHBzOi8vdmVjdGEuaW8vbmFubyIgd2lkdGg9IjIwIiBoZWlnaHQ9IjIwIiB2aWV3Qm94PSIwIDAgMjAgMjAiPiYjeGE7CTxzdHlsZSB0eXBlPSJ0ZXh0L2NzcyI+JiN4YTsJLnN0MHtmaWxsOiM0Mjg1ZjQ7fSYjeGE7CS5zdDF7ZmlsbDojNjY5ZGY2O30mI3hhOwkuc3Qye2ZpbGw6I2FlY2JmYTt9JiN4YTsJPC9zdHlsZT4mI3hhOwk8cGF0aCBjbGFzcz0ic3QyIiBkPSJNMTQgMGg2djZoLTZ6Ii8+JiN4YTsJPHBhdGggY2xhc3M9InN0MSIgZD0iTTE3IDBoM3Y2aC0zeiIvPiYjeGE7CTxwYXRoIGNsYXNzPSJzdDIiIGQ9Ik0xNCAxNGg2djZoLTZ6Ii8+JiN4YTsJPHBhdGggY2xhc3M9InN0MSIgZD0iTTE3IDE0aDN2NmgtM3oiLz4mI3hhOwk8cGF0aCBjbGFzcz0ic3QyIiBkPSJNMCAwaDZ2NkgweiIvPiYjeGE7CTxwYXRoIGNsYXNzPSJzdDEiIGQ9Ik0zIDBoM3Y2SDN6Ii8+JiN4YTsJPHBhdGggY2xhc3M9InN0MiIgZD0iTTAgMTRoNnY2SDB6Ii8+JiN4YTsJPGcgY2xhc3M9InN0MSI+JiN4YTsJCTxwYXRoIGQ9Ik0zIDE0aDN2Nkgzek02IDJoOHYySDZ6Ii8+JiN4YTsJCTxwYXRoIGQ9Ik02IDE2aDh2Mkg2ek0xNiA2aDJ2OGgtMnpNMiA2aDJ2OEgyeiIvPiYjeGE7CTwvZz4mI3hhOwk8cGF0aCBjbGFzcz0ic3QwIiBkPSJNMiA2aDJ2Mkgyem0xNCAwaDJ2MmgtMnpNNiAyaDJ2Mkg2em0wIDE0aDJ2Mkg2eiIvPiYjeGE7PC9zdmc+;sketch=1;hachureGap=4;jiggle=2;curveFitting=1;fontFamily=Architects Daughter;fontSource=https%3A%2F%2Ffonts.googleapis.com%2Fcss%3Ffamily%3DArchitects%2BDaughter;" vertex="1" parent="NcAq1nEZuETaazXwx4-U-1">
          <mxGeometry x="265" y="401" width="22" height="22" as="geometry" />
        </mxCell>
        <mxCell id="ljjwXp4fXD9O23kHXZ_o-5" value="" style="editableCssRules=.*;html=1;shape=image;verticalLabelPosition=bottom;labelBackgroundColor=#ffffff;verticalAlign=top;aspect=fixed;imageAspect=0;image=data:image/svg+xml,PHN2ZyB4bWxucz0iaHR0cDovL3d3dy53My5vcmcvMjAwMC9zdmciIHhtbG5zOnY9Imh0dHBzOi8vdmVjdGEuaW8vbmFubyIgd2lkdGg9IjIwIiBoZWlnaHQ9IjIwIiB2aWV3Qm94PSIwIDAgMjAgMjAiPiYjeGE7CTxzdHlsZSB0eXBlPSJ0ZXh0L2NzcyI+JiN4YTsJLnN0MHtmaWxsOiM0Mjg1ZjQ7fSYjeGE7CS5zdDF7ZmlsbDojNjY5ZGY2O30mI3hhOwkuc3Qye2ZpbGw6I2FlY2JmYTt9JiN4YTsJPC9zdHlsZT4mI3hhOwk8cGF0aCBjbGFzcz0ic3QyIiBkPSJNMTQgMGg2djZoLTZ6Ii8+JiN4YTsJPHBhdGggY2xhc3M9InN0MSIgZD0iTTE3IDBoM3Y2aC0zeiIvPiYjeGE7CTxwYXRoIGNsYXNzPSJzdDIiIGQ9Ik0xNCAxNGg2djZoLTZ6Ii8+JiN4YTsJPHBhdGggY2xhc3M9InN0MSIgZD0iTTE3IDE0aDN2NmgtM3oiLz4mI3hhOwk8cGF0aCBjbGFzcz0ic3QyIiBkPSJNMCAwaDZ2NkgweiIvPiYjeGE7CTxwYXRoIGNsYXNzPSJzdDEiIGQ9Ik0zIDBoM3Y2SDN6Ii8+JiN4YTsJPHBhdGggY2xhc3M9InN0MiIgZD0iTTAgMTRoNnY2SDB6Ii8+JiN4YTsJPGcgY2xhc3M9InN0MSI+JiN4YTsJCTxwYXRoIGQ9Ik0zIDE0aDN2Nkgzek02IDJoOHYySDZ6Ii8+JiN4YTsJCTxwYXRoIGQ9Ik02IDE2aDh2Mkg2ek0xNiA2aDJ2OGgtMnpNMiA2aDJ2OEgyeiIvPiYjeGE7CTwvZz4mI3hhOwk8cGF0aCBjbGFzcz0ic3QwIiBkPSJNMiA2aDJ2Mkgyem0xNCAwaDJ2MmgtMnpNNiAyaDJ2Mkg2em0wIDE0aDJ2Mkg2eiIvPiYjeGE7PC9zdmc+;sketch=1;hachureGap=4;jiggle=2;curveFitting=1;fontFamily=Architects Daughter;fontSource=https%3A%2F%2Ffonts.googleapis.com%2Fcss%3Ffamily%3DArchitects%2BDaughter;" vertex="1" parent="NcAq1nEZuETaazXwx4-U-1">
          <mxGeometry x="505" y="397" width="22" height="22" as="geometry" />
        </mxCell>
        <mxCell id="ljjwXp4fXD9O23kHXZ_o-6" value="" style="editableCssRules=.*;html=1;shape=image;verticalLabelPosition=bottom;labelBackgroundColor=#ffffff;verticalAlign=top;aspect=fixed;imageAspect=0;image=data:image/svg+xml,PHN2ZyB4bWxucz0iaHR0cDovL3d3dy53My5vcmcvMjAwMC9zdmciIHhtbG5zOnY9Imh0dHBzOi8vdmVjdGEuaW8vbmFubyIgd2lkdGg9IjIwIiBoZWlnaHQ9IjIwIiB2aWV3Qm94PSIwIDAgMjAgMjAiPiYjeGE7CTxzdHlsZSB0eXBlPSJ0ZXh0L2NzcyI+JiN4YTsJLnN0MHtmaWxsOiM0Mjg1ZjQ7fSYjeGE7CS5zdDF7ZmlsbDojNjY5ZGY2O30mI3hhOwkuc3Qye2ZpbGw6I2FlY2JmYTt9JiN4YTsJPC9zdHlsZT4mI3hhOwk8cGF0aCBjbGFzcz0ic3QyIiBkPSJNMTQgMGg2djZoLTZ6Ii8+JiN4YTsJPHBhdGggY2xhc3M9InN0MSIgZD0iTTE3IDBoM3Y2aC0zeiIvPiYjeGE7CTxwYXRoIGNsYXNzPSJzdDIiIGQ9Ik0xNCAxNGg2djZoLTZ6Ii8+JiN4YTsJPHBhdGggY2xhc3M9InN0MSIgZD0iTTE3IDE0aDN2NmgtM3oiLz4mI3hhOwk8cGF0aCBjbGFzcz0ic3QyIiBkPSJNMCAwaDZ2NkgweiIvPiYjeGE7CTxwYXRoIGNsYXNzPSJzdDEiIGQ9Ik0zIDBoM3Y2SDN6Ii8+JiN4YTsJPHBhdGggY2xhc3M9InN0MiIgZD0iTTAgMTRoNnY2SDB6Ii8+JiN4YTsJPGcgY2xhc3M9InN0MSI+JiN4YTsJCTxwYXRoIGQ9Ik0zIDE0aDN2Nkgzek02IDJoOHYySDZ6Ii8+JiN4YTsJCTxwYXRoIGQ9Ik02IDE2aDh2Mkg2ek0xNiA2aDJ2OGgtMnpNMiA2aDJ2OEgyeiIvPiYjeGE7CTwvZz4mI3hhOwk8cGF0aCBjbGFzcz0ic3QwIiBkPSJNMiA2aDJ2Mkgyem0xNCAwaDJ2MmgtMnpNNiAyaDJ2Mkg2em0wIDE0aDJ2Mkg2eiIvPiYjeGE7PC9zdmc+;sketch=1;hachureGap=4;jiggle=2;curveFitting=1;fontFamily=Architects Daughter;fontSource=https%3A%2F%2Ffonts.googleapis.com%2Fcss%3Ffamily%3DArchitects%2BDaughter;" vertex="1" parent="NcAq1nEZuETaazXwx4-U-1">
          <mxGeometry x="508" y="517" width="22" height="22" as="geometry" />
        </mxCell>
        <mxCell id="ljjwXp4fXD9O23kHXZ_o-8" value="Cloud Storage" style="editableCssRules=.*;html=1;shape=image;verticalLabelPosition=bottom;labelBackgroundColor=#ffffff;verticalAlign=top;aspect=fixed;imageAspect=0;image=data:image/svg+xml,PHN2ZyB4bWxucz0iaHR0cDovL3d3dy53My5vcmcvMjAwMC9zdmciIHhtbG5zOnY9Imh0dHBzOi8vdmVjdGEuaW8vbmFubyIgd2lkdGg9IjIwIiBoZWlnaHQ9IjE2IiB2aWV3Qm94PSIwIDAgMjAgMTYiPiYjeGE7CTxzdHlsZSB0eXBlPSJ0ZXh0L2NzcyI+JiN4YTsJLnN0MHtmaWxsOiM0Mjg1ZjQ7fSYjeGE7CS5zdDF7ZmlsbDojNjY5ZGY2O30mI3hhOwkuc3Qye2ZpbGw6I2FlY2JmYTt9JiN4YTsJLnN0M3tmaWxsOiNmZmY7fSYjeGE7CTwvc3R5bGU+JiN4YTsJPHBhdGggY2xhc3M9InN0MiIgZD0iTTAgMGgyMHY3SDB6Ii8+JiN4YTsJPHBhdGggY2xhc3M9InN0MSIgZD0iTTE4IDBoMnY3aC0yeiIvPiYjeGE7CTxwYXRoIGNsYXNzPSJzdDAiIGQ9Ik0xOCA3bDItN2gtMnoiLz4mI3hhOwk8cGF0aCBjbGFzcz0ic3QxIiBkPSJNMCAwaDJ2N0gweiIvPiYjeGE7CTxnIGNsYXNzPSJzdDMiPiYjeGE7CQk8cGF0aCBkPSJNNCAzaDZ2MUg0eiIvPiYjeGE7CQk8cmVjdCB4PSIxMyIgeT0iMiIgd2lkdGg9IjMiIGhlaWdodD0iMyIgcng9IjEuNSIvPiYjeGE7CTwvZz4mI3hhOwk8cGF0aCBjbGFzcz0ic3QyIiBkPSJNMCA5aDIwdjdIMHoiLz4mI3hhOwk8cGF0aCBjbGFzcz0ic3QxIiBkPSJNMTggOWgydjdoLTJ6Ii8+JiN4YTsJPHBhdGggY2xhc3M9InN0MCIgZD0iTTE4IDE2bDItN2gtMnoiLz4mI3hhOwk8cGF0aCBjbGFzcz0ic3QxIiBkPSJNMCA5aDJ2N0gweiIvPiYjeGE7CTxnIGNsYXNzPSJzdDMiPiYjeGE7CQk8cGF0aCBkPSJNNCAxMmg2djFINHoiLz4mI3hhOwkJPHJlY3QgeD0iMTMiIHk9IjExIiB3aWR0aD0iMyIgaGVpZ2h0PSIzIiByeD0iMS41Ii8+JiN4YTsJPC9nPiYjeGE7PC9zdmc+;sketch=1;hachureGap=4;jiggle=2;curveFitting=1;fontFamily=Architects Daughter;fontSource=https%3A%2F%2Ffonts.googleapis.com%2Fcss%3Ffamily%3DArchitects%2BDaughter;" vertex="1" parent="NcAq1nEZuETaazXwx4-U-1">
          <mxGeometry x="305" y="657" width="40" height="32" as="geometry" />
        </mxCell>
        <mxCell id="ljjwXp4fXD9O23kHXZ_o-9" value="" style="editableCssRules=.*;html=1;shape=image;verticalLabelPosition=bottom;labelBackgroundColor=#ffffff;verticalAlign=top;aspect=fixed;imageAspect=0;image=data:image/svg+xml,PHN2ZyB4bWxucz0iaHR0cDovL3d3dy53My5vcmcvMjAwMC9zdmciIHhtbG5zOnY9Imh0dHBzOi8vdmVjdGEuaW8vbmFubyIgd2lkdGg9IjIwIiBoZWlnaHQ9IjIwIiB2aWV3Qm94PSIwIDAgMjAgMjAiPiYjeGE7CTxzdHlsZSB0eXBlPSJ0ZXh0L2NzcyI+JiN4YTsJLnN0MHtmaWxsOiM0Mjg1ZjQ7fSYjeGE7CS5zdDF7ZmlsbDojNjY5ZGY2O30mI3hhOwkuc3Qye2ZpbGw6I2FlY2JmYTt9JiN4YTsJPC9zdHlsZT4mI3hhOwk8cGF0aCBjbGFzcz0ic3QyIiBkPSJNNyA3aDZ2Nkg3eiIvPiYjeGE7CTxwYXRoIGNsYXNzPSJzdDEiIGQ9Ik05IDBoMnY0SDl6TTUgMGgydjRINXptOCAwaDJ2NGgtMnoiLz4mI3hhOwk8cGF0aCBjbGFzcz0ic3QwIiBkPSJNOSAxNmgydjRIOXptLTQgMGgydjRINXptOCAwaDJ2NGgtMnptMy01VjloNHYyem0wIDR2LTJoNHYyem0wLThWNWg0djJ6Ii8+JiN4YTsJPHBhdGggY2xhc3M9InN0MSIgZD0iTTAgMTFWOWg0djJ6bTAgNHYtMmg0djJ6bTAtOFY1aDR2MnoiLz4mI3hhOwk8cGF0aCBjbGFzcz0ic3QyIiBkPSJNMyAzdjE0aDE0VjN6bTEyIDEySDVWNWgxMHoiLz4mI3hhOwk8cGF0aCBjbGFzcz0ic3QxIiBkPSJNMTAgMTBsLTMgM2g2eiIvPiYjeGE7CTxwYXRoIGNsYXNzPSJzdDAiIGQ9Ik0xMyA3bC0zIDMgMyAzeiIvPiYjeGE7PC9zdmc+;sketch=1;hachureGap=4;jiggle=2;curveFitting=1;fontFamily=Architects Daughter;fontSource=https%3A%2F%2Ffonts.googleapis.com%2Fcss%3Ffamily%3DArchitects%2BDaughter;" vertex="1" parent="NcAq1nEZuETaazXwx4-U-1">
          <mxGeometry x="592" y="522" width="48" height="48" as="geometry" />
        </mxCell>
        <mxCell id="ljjwXp4fXD9O23kHXZ_o-11" value="GCE" style="editableCssRules=.*;html=1;shape=image;verticalLabelPosition=bottom;labelBackgroundColor=#ffffff;verticalAlign=top;aspect=fixed;imageAspect=0;image=data:image/svg+xml,PHN2ZyB4bWxucz0iaHR0cDovL3d3dy53My5vcmcvMjAwMC9zdmciIHhtbG5zOnY9Imh0dHBzOi8vdmVjdGEuaW8vbmFubyIgd2lkdGg9IjIwIiBoZWlnaHQ9IjIwIiB2aWV3Qm94PSIwIDAgMjAgMjAiPiYjeGE7CTxzdHlsZSB0eXBlPSJ0ZXh0L2NzcyI+JiN4YTsJLnN0MHtmaWxsOiM0Mjg1ZjQ7fSYjeGE7CS5zdDF7ZmlsbDojNjY5ZGY2O30mI3hhOwkuc3Qye2ZpbGw6I2FlY2JmYTt9JiN4YTsJPC9zdHlsZT4mI3hhOwk8cGF0aCBjbGFzcz0ic3QyIiBkPSJNNyA3aDZ2Nkg3eiIvPiYjeGE7CTxwYXRoIGNsYXNzPSJzdDEiIGQ9Ik05IDBoMnY0SDl6TTUgMGgydjRINXptOCAwaDJ2NGgtMnoiLz4mI3hhOwk8cGF0aCBjbGFzcz0ic3QwIiBkPSJNOSAxNmgydjRIOXptLTQgMGgydjRINXptOCAwaDJ2NGgtMnptMy01VjloNHYyem0wIDR2LTJoNHYyem0wLThWNWg0djJ6Ii8+JiN4YTsJPHBhdGggY2xhc3M9InN0MSIgZD0iTTAgMTFWOWg0djJ6bTAgNHYtMmg0djJ6bTAtOFY1aDR2MnoiLz4mI3hhOwk8cGF0aCBjbGFzcz0ic3QyIiBkPSJNMyAzdjE0aDE0VjN6bTEyIDEySDVWNWgxMHoiLz4mI3hhOwk8cGF0aCBjbGFzcz0ic3QxIiBkPSJNMTAgMTBsLTMgM2g2eiIvPiYjeGE7CTxwYXRoIGNsYXNzPSJzdDAiIGQ9Ik0xMyA3bC0zIDMgMyAzeiIvPiYjeGE7PC9zdmc+;sketch=1;hachureGap=4;jiggle=2;curveFitting=1;fontFamily=Architects Daughter;fontSource=https%3A%2F%2Ffonts.googleapis.com%2Fcss%3Ffamily%3DArchitects%2BDaughter;" vertex="1" parent="NcAq1nEZuETaazXwx4-U-1">
          <mxGeometry x="539" y="410" width="48" height="48" as="geometry" />
        </mxCell>
        <mxCell id="ljjwXp4fXD9O23kHXZ_o-13" value="GCE (GKE Nodes)" style="editableCssRules=.*;html=1;shape=image;verticalLabelPosition=bottom;labelBackgroundColor=#ffffff;verticalAlign=top;aspect=fixed;imageAspect=0;image=data:image/svg+xml,PHN2ZyB4bWxucz0iaHR0cDovL3d3dy53My5vcmcvMjAwMC9zdmciIHhtbG5zOnY9Imh0dHBzOi8vdmVjdGEuaW8vbmFubyIgd2lkdGg9IjIwIiBoZWlnaHQ9IjIwIiB2aWV3Qm94PSIwIDAgMjAgMjAiPiYjeGE7CTxzdHlsZSB0eXBlPSJ0ZXh0L2NzcyI+JiN4YTsJLnN0MHtmaWxsOiM0Mjg1ZjQ7fSYjeGE7CS5zdDF7ZmlsbDojNjY5ZGY2O30mI3hhOwkuc3Qye2ZpbGw6I2FlY2JmYTt9JiN4YTsJPC9zdHlsZT4mI3hhOwk8cGF0aCBjbGFzcz0ic3QyIiBkPSJNNyA3aDZ2Nkg3eiIvPiYjeGE7CTxwYXRoIGNsYXNzPSJzdDEiIGQ9Ik05IDBoMnY0SDl6TTUgMGgydjRINXptOCAwaDJ2NGgtMnoiLz4mI3hhOwk8cGF0aCBjbGFzcz0ic3QwIiBkPSJNOSAxNmgydjRIOXptLTQgMGgydjRINXptOCAwaDJ2NGgtMnptMy01VjloNHYyem0wIDR2LTJoNHYyem0wLThWNWg0djJ6Ii8+JiN4YTsJPHBhdGggY2xhc3M9InN0MSIgZD0iTTAgMTFWOWg0djJ6bTAgNHYtMmg0djJ6bTAtOFY1aDR2MnoiLz4mI3hhOwk8cGF0aCBjbGFzcz0ic3QyIiBkPSJNMyAzdjE0aDE0VjN6bTEyIDEySDVWNWgxMHoiLz4mI3hhOwk8cGF0aCBjbGFzcz0ic3QxIiBkPSJNMTAgMTBsLTMgM2g2eiIvPiYjeGE7CTxwYXRoIGNsYXNzPSJzdDAiIGQ9Ik0xMyA3bC0zIDMgMyAzeiIvPiYjeGE7PC9zdmc+;sketch=1;hachureGap=4;jiggle=2;curveFitting=1;fontFamily=Architects Daughter;fontSource=https%3A%2F%2Ffonts.googleapis.com%2Fcss%3Ffamily%3DArchitects%2BDaughter;" vertex="1" parent="NcAq1nEZuETaazXwx4-U-1">
          <mxGeometry x="609" y="410" width="48" height="48" as="geometry" />
        </mxCell>
        <mxCell id="ljjwXp4fXD9O23kHXZ_o-14" value="" style="editableCssRules=.*;html=1;shape=image;verticalLabelPosition=bottom;labelBackgroundColor=#ffffff;verticalAlign=top;aspect=fixed;imageAspect=0;image=data:image/svg+xml,PHN2ZyB4bWxucz0iaHR0cDovL3d3dy53My5vcmcvMjAwMC9zdmciIHhtbG5zOnY9Imh0dHBzOi8vdmVjdGEuaW8vbmFubyIgd2lkdGg9IjE1Ljg0MDAwMDE1MjU4Nzg5IiBoZWlnaHQ9IjIwIiB2aWV3Qm94PSIwIDAgMTUuODQwMDAwMTUyNTg3ODkgMjAiPiYjeGE7CTxzdHlsZSB0eXBlPSJ0ZXh0L2NzcyI+JiN4YTsJLnN0MHtmaWxsOiM0Mjg1ZjQ7fSYjeGE7CS5zdDF7ZmlsbDojNjY5ZGY2O30mI3hhOwkuc3Qye2ZpbGw6I2FlY2JmYTt9JiN4YTsJPC9zdHlsZT4mI3hhOwk8cGF0aCBjbGFzcz0ic3QwIiBkPSJNMCAxNi4yNVYyMGgxNS44NHYtOC4zM2gtMy43NXY0LjU4eiIvPiYjeGE7CTxwYXRoIGNsYXNzPSJzdDIiIGQ9Ik0xNS44NCAzLjc1VjBIMHY4LjMzaDMuNzVWMy43NXoiLz4mI3hhOwk8cGF0aCBjbGFzcz0ic3QxIiBkPSJNMCAxMC40MnYzLjc1aDEwVjkuNThoNS44NFY1LjgzaC0xMHY0LjU5eiIvPiYjeGE7PC9zdmc+;sketch=1;hachureGap=4;jiggle=2;curveFitting=1;fontFamily=Architects Daughter;fontSource=https%3A%2F%2Ffonts.googleapis.com%2Fcss%3Ffamily%3DArchitects%2BDaughter;" vertex="1" parent="NcAq1nEZuETaazXwx4-U-1">
          <mxGeometry x="545" y="334" width="32" height="40" as="geometry" />
        </mxCell>
        <mxCell id="ljjwXp4fXD9O23kHXZ_o-15" value="" style="editableCssRules=.*;html=1;shape=image;verticalLabelPosition=bottom;labelBackgroundColor=#ffffff;verticalAlign=top;aspect=fixed;imageAspect=0;image=data:image/svg+xml,PHN2ZyB4bWxucz0iaHR0cDovL3d3dy53My5vcmcvMjAwMC9zdmciIHhtbG5zOnY9Imh0dHBzOi8vdmVjdGEuaW8vbmFubyIgd2lkdGg9IjE1Ljg0MDAwMDE1MjU4Nzg5IiBoZWlnaHQ9IjIwIiB2aWV3Qm94PSIwIDAgMTUuODQwMDAwMTUyNTg3ODkgMjAiPiYjeGE7CTxzdHlsZSB0eXBlPSJ0ZXh0L2NzcyI+JiN4YTsJLnN0MHtmaWxsOiM0Mjg1ZjQ7fSYjeGE7CS5zdDF7ZmlsbDojNjY5ZGY2O30mI3hhOwkuc3Qye2ZpbGw6I2FlY2JmYTt9JiN4YTsJPC9zdHlsZT4mI3hhOwk8cGF0aCBjbGFzcz0ic3QwIiBkPSJNMCAxNi4yNVYyMGgxNS44NHYtOC4zM2gtMy43NXY0LjU4eiIvPiYjeGE7CTxwYXRoIGNsYXNzPSJzdDIiIGQ9Ik0xNS44NCAzLjc1VjBIMHY4LjMzaDMuNzVWMy43NXoiLz4mI3hhOwk8cGF0aCBjbGFzcz0ic3QxIiBkPSJNMCAxMC40MnYzLjc1aDEwVjkuNThoNS44NFY1LjgzaC0xMHY0LjU5eiIvPiYjeGE7PC9zdmc+;sketch=1;hachureGap=4;jiggle=2;curveFitting=1;fontFamily=Architects Daughter;fontSource=https%3A%2F%2Ffonts.googleapis.com%2Fcss%3Ffamily%3DArchitects%2BDaughter;" vertex="1" parent="NcAq1nEZuETaazXwx4-U-1">
          <mxGeometry x="618" y="338" width="32" height="40" as="geometry" />
        </mxCell>
        <mxCell id="ljjwXp4fXD9O23kHXZ_o-17" value="Prisma Cloud (Scanner)" style="editableCssRules=.*;html=1;shape=image;verticalLabelPosition=bottom;labelBackgroundColor=#ffffff;verticalAlign=top;aspect=fixed;imageAspect=0;image=data:image/svg+xml,PHN2ZyB4bWxucz0iaHR0cDovL3d3dy53My5vcmcvMjAwMC9zdmciIHhtbG5zOnY9Imh0dHBzOi8vdmVjdGEuaW8vbmFubyIgd2lkdGg9IjIwIiBoZWlnaHQ9IjIwIiB2aWV3Qm94PSIwIDAgMjAgMjAiPiYjeGE7CTxzdHlsZSB0eXBlPSJ0ZXh0L2NzcyI+JiN4YTsJLnN0MHtmaWxsOiM0Mjg1ZjQ7fSYjeGE7CS5zdDF7ZmlsbDojNjY5ZGY2O30mI3hhOwkuc3Qye2ZpbGw6I2FlY2JmYTt9JiN4YTsJPC9zdHlsZT4mI3hhOwk8cGF0aCBjbGFzcz0ic3QyIiBkPSJNNyA3aDZ2Nkg3eiIvPiYjeGE7CTxwYXRoIGNsYXNzPSJzdDEiIGQ9Ik05IDBoMnY0SDl6TTUgMGgydjRINXptOCAwaDJ2NGgtMnoiLz4mI3hhOwk8cGF0aCBjbGFzcz0ic3QwIiBkPSJNOSAxNmgydjRIOXptLTQgMGgydjRINXptOCAwaDJ2NGgtMnptMy01VjloNHYyem0wIDR2LTJoNHYyem0wLThWNWg0djJ6Ii8+JiN4YTsJPHBhdGggY2xhc3M9InN0MSIgZD0iTTAgMTFWOWg0djJ6bTAgNHYtMmg0djJ6bTAtOFY1aDR2MnoiLz4mI3hhOwk8cGF0aCBjbGFzcz0ic3QyIiBkPSJNMyAzdjE0aDE0VjN6bTEyIDEySDVWNWgxMHoiLz4mI3hhOwk8cGF0aCBjbGFzcz0ic3QxIiBkPSJNMTAgMTBsLTMgM2g2eiIvPiYjeGE7CTxwYXRoIGNsYXNzPSJzdDAiIGQ9Ik0xMyA3bC0zIDMgMyAzeiIvPiYjeGE7PC9zdmc+;sketch=1;hachureGap=4;jiggle=2;curveFitting=1;fontFamily=Architects Daughter;fontSource=https%3A%2F%2Ffonts.googleapis.com%2Fcss%3Ffamily%3DArchitects%2BDaughter;" vertex="1" parent="NcAq1nEZuETaazXwx4-U-1">
          <mxGeometry x="467" y="237" width="48" height="48" as="geometry" />
        </mxCell>
        <mxCell id="ljjwXp4fXD9O23kHXZ_o-18" value="Public IP" style="editableCssRules=.*;html=1;shape=image;verticalLabelPosition=bottom;labelBackgroundColor=#ffffff;verticalAlign=top;aspect=fixed;imageAspect=0;image=data:image/svg+xml,PHN2ZyB4bWxucz0iaHR0cDovL3d3dy53My5vcmcvMjAwMC9zdmciIHhtbG5zOnY9Imh0dHBzOi8vdmVjdGEuaW8vbmFubyIgd2lkdGg9IjE5Ljk5OTk5ODA5MjY1MTM2NyIgaGVpZ2h0PSIyMCIgdmlld0JveD0iMCAtMi44NDIxNzA1NjE4NzU1NzQ1ZS0xNSAxOS45OTk5OTgwOTI2NTEzNjcgMjAiPiYjeGE7CTxzdHlsZSB0eXBlPSJ0ZXh0L2NzcyI+JiN4YTsJLnN0MHtmaWxsOiM0Mjg1ZjQ7fSYjeGE7CS5zdDF7ZmlsbDojNjY5ZGY2O30mI3hhOwk8L3N0eWxlPiYjeGE7CTxwYXRoIGNsYXNzPSJzdDEiIGQ9Ik0xNS40OSAxMC40djYuN2EuNC40IDAgMCAxLS40LjRIMi45YS40LjQgMCAwIDEtLjQtLjRWNC45YS40LjQgMCAwIDEgLjQtLjRoNi43YS40LjQgMCAwIDAgLjQtLjRWMi40YS40LjQgMCAwIDAtLjQtLjRILjRhLjQuNCAwIDAgMC0uNC40djE3LjJhLjQuNCAwIDAgMCAuNC40aDE3LjJhLjQuNCAwIDAgMCAuNC0uNHYtOS4yYS40LjQgMCAwIDAtLjQtLjRoLTEuNzFhLjQuNCAwIDAgMC0uNC40eiIvPiYjeGE7CTxwYXRoIGNsYXNzPSJzdDAiIGQ9Ik0xMiAuNHY3LjJhLjQuNCAwIDAgMCAuNC40aDcuMmEuNC40IDAgMCAwIC40LS40Vi40YS40LjQgMCAwIDAtLjQtLjRoLTcuMmEuNC40IDAgMCAwLS40LjR6bTUuNiA0LjFoLTEuNzFhLjQuNCAwIDAgMS0uNC0uNFYyLjRhLjQuNCAwIDAgMSAuNC0uNGgxLjcxYS40LjQgMCAwIDEgLjQuNHYxLjdhLjQuNCAwIDAgMS0uNC40eiIvPiYjeGE7PC9zdmc+;sketch=1;hachureGap=4;jiggle=2;curveFitting=1;fontFamily=Architects Daughter;fontSource=https%3A%2F%2Ffonts.googleapis.com%2Fcss%3Ffamily%3DArchitects%2BDaughter;" vertex="1" parent="NcAq1nEZuETaazXwx4-U-1">
          <mxGeometry x="289" y="258" width="38" height="38" as="geometry" />
        </mxCell>
        <mxCell id="ljjwXp4fXD9O23kHXZ_o-21" value="Cloud&lt;div&gt;Function&lt;/div&gt;" style="editableCssRules=.*;html=1;shape=image;verticalLabelPosition=bottom;labelBackgroundColor=#ffffff;verticalAlign=top;aspect=fixed;imageAspect=0;image=data:image/svg+xml,PHN2ZyB4bWxucz0iaHR0cDovL3d3dy53My5vcmcvMjAwMC9zdmciIHhtbG5zOnY9Imh0dHBzOi8vdmVjdGEuaW8vbmFubyIgd2lkdGg9IjIwIiBoZWlnaHQ9IjE5Ljk4OTk5OTc3MTExODE2NCIgdmlld0JveD0iMCAwIDIwIDE5Ljk4OTk5OTc3MTExODE2NCI+JiN4YTsJPHN0eWxlIHR5cGU9InRleHQvY3NzIj4mI3hhOwkuc3Qwe2ZpbGw6IzQyODVmNDt9JiN4YTsJLnN0MXtmaWxsOiM2NjlkZjY7fSYjeGE7CS5zdDJ7ZmlsbDojYWVjYmZhO30mI3hhOwk8L3N0eWxlPiYjeGE7CTxwYXRoIGNsYXNzPSJzdDEiIGQ9Ik0zIDMuOTlMMCA2LjQydjcuMTNsMyAyLjQ0eiIvPiYjeGE7CTxwYXRoIGNsYXNzPSJzdDAiIGQ9Ik0zIDMuOTlsLTMgNCAzLTJ6bS0zIDhsMyA0di0yeiIvPiYjeGE7CTxwYXRoIGNsYXNzPSJzdDIiIGQ9Ik0wIDE1Ljk5bDQgNCAyLTItNi02em0uMDEtOEw1Ljk5IDJsLTItMkwwIDMuOTl6Ii8+JiN4YTsJPHBhdGggY2xhc3M9InN0MSIgZD0iTTE3IDE2bDMtMi40MlY2LjQ0TDE3IDR6Ii8+JiN4YTsJPHBhdGggY2xhc3M9InN0MCIgZD0iTTE3IDE2bDMtNC0zIDJ6bTMtOGwtMy00djJ6Ii8+JiN4YTsJPGcgY2xhc3M9InN0MiI+JiN4YTsJCTxwYXRoIGQ9Ik0yMCA0bC00LTQtMiAyIDYgNnptLS4wMSA4bC01Ljk4IDUuOTkgMiAyTDIwIDE2eiIvPiYjeGE7CQk8Y2lyY2xlIGN4PSI2IiBjeT0iOS45OSIgcj0iMSIvPiYjeGE7CQk8Y2lyY2xlIGN4PSIxMCIgY3k9IjkuOTkiIHI9IjEiLz4mI3hhOwkJPGNpcmNsZSBjeD0iMTMuOTkiIGN5PSI5Ljk5IiByPSIxIi8+JiN4YTsJPC9nPiYjeGE7PC9zdmc+;sketch=1;hachureGap=4;jiggle=2;curveFitting=1;fontFamily=Architects Daughter;fontSource=https%3A%2F%2Ffonts.googleapis.com%2Fcss%3Ffamily%3DArchitects%2BDaughter;" vertex="1" parent="NcAq1nEZuETaazXwx4-U-1">
          <mxGeometry x="747" y="404" width="38" height="38" as="geometry" />
        </mxCell>
        <mxCell id="ljjwXp4fXD9O23kHXZ_o-22" value="Artifact&lt;div&gt;Registry&lt;/div&gt;" style="editableCssRules=.*;html=1;shape=image;verticalLabelPosition=bottom;labelBackgroundColor=#ffffff;verticalAlign=top;aspect=fixed;imageAspect=0;image=data:image/svg+xml,PHN2ZyB4bWxucz0iaHR0cDovL3d3dy53My5vcmcvMjAwMC9zdmciIHhtbG5zOnY9Imh0dHBzOi8vdmVjdGEuaW8vbmFubyIgd2lkdGg9IjIxLjk5OTAwMDU0OTMxNjQwNiIgaGVpZ2h0PSIyMC4zOTM5OTkwOTk3MzE0NDUiIHZpZXdCb3g9IjAgMCAyMS45OTkwMDA1NDkzMTY0MDYgMjAuMzkzOTk5MDk5NzMxNDQ1Ij4mI3hhOwk8c3R5bGUgdHlwZT0idGV4dC9jc3MiPiYjeGE7CS5zdDB7ZmlsbDojNDI4NWY0O2ZpbGwtcnVsZTpldmVub2RkfSYjeGE7CTwvc3R5bGU+JiN4YTsJPHBhdGggY2xhc3M9InN0MCIgZD0iTTUgMHYyLjQ1OEwxLjk5OSA0LjE5N3YxMi4wMUw1IDE3LjkzOHYyLjQ1NmwtNS0yLjg4N1YyLjg4NnptMTIgMGw0Ljk5OSAyLjg4NnYxNC42MjFMMTcgMjAuMzk0di0yLjQ1NmwzLTEuNzMxVjQuMTk3bC0zLTEuNzM5em0tNi4wMTYgNi42NzNsMi45NDctMS42NDYtMi45NDctMS42NDYtMi45NDcgMS42NDZ6bTMuMjY4LTEuMDk2bC0yLjg3MSAxLjY3OHYzLjI4N2wyLjg3MS0xLjY3NnpNNy43NzMgOC44NjZsMi44NzEgMS42NzRWNy4yNTZMNy43NzMgNS41Nzd6bS0uMjEyIDMuODc4bDIuODItMS42NDYtMi44Mi0xLjY0Ni0yLjgyIDEuNjQ2em0zLjEzMi0xLjA5OGwtMi44NzEgMS42Nzh2My4yODdsMi44NzEtMS42NzZ6bS02LjI2NCAzLjI4OUw3LjMgMTYuNjA5di0zLjI4NWwtMi44NzEtMS42Nzl6bTEwLjAyOS0yLjE5MWwyLjgyLTEuNjQ2LTIuODItMS42NDYtMi44MiAxLjY0NnptMy4xMzItMS4wOThsLTIuODcxIDEuNjc4djMuMjg3bDIuODcxLTEuNjc2em0tNi4yNjQgMy4yODlsMi44NzEgMS42NzR2LTMuMjg1bC0yLjg3MS0xLjY3OXoiLz4mI3hhOzwvc3ZnPg==;sketch=1;hachureGap=4;jiggle=2;curveFitting=1;fontFamily=Architects Daughter;fontSource=https%3A%2F%2Ffonts.googleapis.com%2Fcss%3Ffamily%3DArchitects%2BDaughter;" vertex="1" parent="NcAq1nEZuETaazXwx4-U-1">
          <mxGeometry x="744" y="531" width="40" height="36" as="geometry" />
        </mxCell>
      </root>
    </mxGraphModel>
  </diagram>
</mxfile>
